<svg xmlns="http://www.w3.org/2000/svg">
  <symbol id="leaderboard" viewBox="0 0 20 20" fill="none">
    <g clip-path="url(#clip0_2011_92)">
      <path d="M16.6667 13.3333C15.7475 13.3333 15 12.5858 15 11.6667C15 10.7475 15.7475 10 16.6667 10C17.5858 10 18.3333 10.7475 18.3333 11.6667C18.3333 12.5858 17.5858 13.3333 16.6667 13.3333Z" fill="currentColor"></path>
      <path d="M3.33329 13.3333C2.41413 13.3333 1.66663 12.5858 1.66663 11.6667C1.66663 10.7475 2.41413 10 3.33329 10C4.25246 10 4.99996 10.7475 4.99996 11.6667C4.99996 12.5858 4.25246 13.3333 3.33329 13.3333Z" fill="currentColor"></path>
      <path d="M10 13.75C8.62167 13.75 7.5 12.6283 7.5 11.25C7.5 9.87167 8.62167 8.75 10 8.75C11.3783 8.75 12.5 9.87167 12.5 11.25C12.5 12.6283 11.3783 13.75 10 13.75Z" fill="currentColor"></path>
      <path d="M13.9583 19.1667H6.04163C5.69663 19.1667 5.41663 18.8867 5.41663 18.5417V17.2917C5.41663 16.0275 6.44413 15 7.70829 15H12.2916C13.5558 15 14.5833 16.0275 14.5833 17.2917V18.5417C14.5833 18.8867 14.3033 19.1667 13.9583 19.1667Z" fill="currentColor"></path>
      <path d="M17.7083 14.1667H15.625C15.3583 14.1667 15.1083 14.2084 14.875 14.2917C15.8558 15.1467 16.25 16.2109 16.25 17.5H19.375C19.7167 17.5 20 17.2167 20 16.875V16.4584C20 15.1917 18.975 14.1667 17.7083 14.1667Z" fill="currentColor"></path>
      <path d="M4.375 14.1667H2.29167C1.025 14.1667 0 15.1917 0 16.4584V16.875C0 17.2167 0.283333 17.5 0.625 17.5H3.75C3.75 16.2109 4.14417 15.1467 5.125 14.2917C4.89167 14.2084 4.64167 14.1667 4.375 14.1667Z" fill="currentColor"></path>
      <path d="M12.8892 7.49998H7.11087C6.81004 7.49998 6.55254 7.28581 6.49671 6.99081L5.84421 3.51831C5.75171 3.02581 6.24921 2.62748 6.71171 2.83164L8.11171 3.45331L9.46004 1.14414C9.68504 0.759976 10.315 0.759976 10.54 1.14414L11.8884 3.45331L13.2884 2.83164C13.7475 2.62831 14.2484 3.02414 14.1567 3.51831L13.5042 6.99081C13.4484 7.28581 13.19 7.49998 12.8892 7.49998Z" fill="currentColor"></path>
    </g>
    <defs>
      <clipPath id="clip0_2011_92">
        <rect width="20" height="20" fill="currentColor"></rect>
      </clipPath>
    </defs>
  </symbol>

  <symbol id="Vector" viewBox="0 0 19.999591827392578 19.999984741210938" fill="none">
    <path d="M19.8105 18.9119L14.6468 13.8308C15.999 12.3616 16.8298 10.4187 16.8298 8.28068C16.8292 3.7071 13.0621 0 8.41471 0C3.76737 0 0.000244141 3.7071 0.000244141 8.28068C0.000244141 12.8543 3.76737 16.5614 8.41471 16.5614C10.4227 16.5614 12.2644 15.8668 13.711 14.7122L18.8947 19.8134C19.1473 20.0622 19.5573 20.0622 19.8099 19.8134C20.0631 19.5646 20.0631 19.1607 19.8105 18.9119ZM8.41471 15.2873C4.48256 15.2873 1.29493 12.1504 1.29493 8.28068C1.29493 4.41101 4.48256 1.27403 8.41471 1.27403C12.3469 1.27403 15.5345 4.41101 15.5345 8.28068C15.5345 12.1504 12.3469 15.2873 8.41471 15.2873Z" fill="currentColor"></path>
  </symbol>

  <symbol id="Group" viewBox="0 0 19.999591827392578 19.999984741210938" fill="none">
    <path d="M19.8105 18.9119L14.6468 13.8308C15.999 12.3616 16.8298 10.4187 16.8298 8.28068C16.8292 3.7071 13.0621 0 8.41471 0C3.76737 0 0.000244141 3.7071 0.000244141 8.28068C0.000244141 12.8543 3.76737 16.5614 8.41471 16.5614C10.4227 16.5614 12.2644 15.8668 13.711 14.7122L18.8947 19.8134C19.1473 20.0622 19.5573 20.0622 19.8099 19.8134C20.0631 19.5646 20.0631 19.1607 19.8105 18.9119ZM8.41471 15.2873C4.48256 15.2873 1.29493 12.1504 1.29493 8.28068C1.29493 4.41101 4.48256 1.27403 8.41471 1.27403C12.3469 1.27403 15.5345 4.41101 15.5345 8.28068C15.5345 12.1504 12.3469 15.2873 8.41471 15.2873Z" fill="currentColor"></path>
  </symbol>

  <symbol id="statisctics 1" viewBox="0 0 20 20" fill="none">
    <path d="M5 9.375H3.75C3.05964 9.375 2.5 9.93464 2.5 10.625V16.875C2.5 17.5654 3.05964 18.125 3.75 18.125H5C5.69036 18.125 6.25 17.5654 6.25 16.875V10.625C6.25 9.93464 5.69036 9.375 5 9.375Z" fill="currentColor"></path>
    <path d="M10.625 3.75H9.375C8.68464 3.75 8.125 4.30964 8.125 5V16.875C8.125 17.5654 8.68464 18.125 9.375 18.125H10.625C11.3154 18.125 11.875 17.5654 11.875 16.875V5C11.875 4.30964 11.3154 3.75 10.625 3.75Z" fill="currentColor"></path>
    <path d="M16.25 1.875H15C14.3096 1.875 13.75 2.43464 13.75 3.125V16.875C13.75 17.5654 14.3096 18.125 15 18.125H16.25C16.9404 18.125 17.5 17.5654 17.5 16.875V3.125C17.5 2.43464 16.9404 1.875 16.25 1.875Z" fill="currentColor"></path>
  </symbol>

  <symbol id="team-leader 2" viewBox="0 0 20 20" fill="none">
    <path fill-rule="evenodd" clip-rule="evenodd" d="M1.02387 10.4866C1.06653 11.1428 1.13829 11.6618 1.31914 12.3312C1.36821 12.5128 1.52727 12.6346 1.71539 12.6346H4.237C4.48176 12.6346 4.67051 12.4253 4.64524 12.1818C4.49637 10.7475 4.48039 9.25573 4.59899 7.80886C4.61868 7.56843 4.43118 7.36491 4.18993 7.36491H1.71543C1.52735 7.36491 1.36825 7.48675 1.31918 7.66835C1.19715 8.1203 1.10907 8.58608 1.06008 9.06272C1.01602 9.49042 1.0111 9.76811 1.0134 10.1904L1.02387 10.4866ZM4.86883 5.71319C5.03473 4.78343 5.25735 3.89343 5.53172 3.06237C5.65438 2.69081 5.2309 2.37366 4.90887 2.59589C3.83465 3.33706 2.92848 4.30581 2.26145 5.4319C2.09891 5.70628 2.29571 6.05155 2.61461 6.05155H4.46477C4.66543 6.05155 4.8336 5.91073 4.86883 5.71319ZM13.7681 5.56132C13.4638 4.026 12.9933 2.62702 12.3798 1.46944C12.3228 1.3619 12.2321 1.29139 12.1138 1.26272C10.728 0.927019 9.27133 0.927292 7.88657 1.26272C7.76825 1.29139 7.67754 1.36186 7.62051 1.46944C7.00707 2.62706 6.53653 4.026 6.23227 5.56132C6.18172 5.81639 6.37485 6.05155 6.63489 6.05155H13.3655C13.6255 6.05155 13.8186 5.81639 13.7681 5.56132ZM15.5356 6.05155H17.3858C17.7047 6.05155 17.9014 5.70632 17.7389 5.43194C17.0719 4.30565 16.1657 3.33663 15.0913 2.59561C14.7693 2.37346 14.3459 2.69061 14.4685 3.06214C14.7429 3.89327 14.9656 4.78335 15.1315 5.71323C15.1668 5.91073 15.3349 6.05155 15.5356 6.05155ZM15.7634 12.6347H18.285C18.4731 12.6347 18.6322 12.5129 18.6813 12.3313C18.8033 11.8796 18.8914 11.4137 18.9403 10.9369C18.9881 10.4696 18.9869 10.2557 18.9869 9.79116C18.9869 9.60503 18.9568 9.22303 18.9403 9.06272C18.8913 8.58608 18.8032 8.1203 18.6812 7.66835C18.6322 7.48675 18.473 7.36491 18.2849 7.36491H15.8105C15.5692 7.36491 15.3817 7.56843 15.4014 7.80886C15.52 9.25577 15.504 10.7474 15.3552 12.1818C15.3299 12.4253 15.5186 12.6347 15.7634 12.6347ZM15.0361 14.2759C14.8398 15.2324 14.572 16.1894 14.2312 17.0819C14.0902 17.451 14.5034 17.7871 14.8361 17.5739C16.0225 16.8136 17.0191 15.7821 17.7387 14.5677C17.9013 14.2933 17.7045 13.948 17.3855 13.948H15.4382C15.2413 13.948 15.0757 14.083 15.0361 14.2759ZM5.76907 17.0817C5.42829 16.1891 5.16055 15.2324 4.96422 14.276C4.92461 14.083 4.75911 13.948 4.56219 13.948H2.61485C2.2959 13.948 2.09914 14.2933 2.26172 14.5677C2.98129 15.782 3.97782 16.8133 5.16418 17.5737C5.49684 17.7869 5.91004 17.4508 5.76907 17.0817ZM13.2509 13.948H6.7495C6.48457 13.948 6.29032 14.1917 6.34938 14.45C6.71856 16.0639 7.27438 17.5039 7.98219 18.6326C8.0445 18.732 8.13508 18.7944 8.25016 18.8172C9.40547 19.046 10.5939 19.0462 11.7502 18.8172C11.8653 18.7944 11.9558 18.732 12.0182 18.6326C12.726 17.5039 13.2818 16.0641 13.651 14.45C13.7101 14.1917 13.5158 13.948 13.2509 13.948ZM5.83403 9.73659C5.83403 10.5978 5.88473 11.4474 5.97977 12.2713C6.00379 12.4794 6.17797 12.6347 6.3875 12.6347H13.6129C13.8224 12.6347 13.9966 12.4794 14.0206 12.2713C14.1932 10.7752 14.2131 9.24596 14.077 7.73846C14.0578 7.52624 13.8813 7.36495 13.6682 7.36495H6.33215C6.11903 7.36495 5.94254 7.52624 5.92336 7.73846C5.8643 8.39292 5.83403 9.06124 5.83403 9.73659Z" fill="currentColor"></path>
  </symbol>

  <symbol id="team-leader 2" viewBox="0 0 20 20" fill="none">
    <path d="M1.63121 6.6C1.67233 6.60024 1.7131 6.59236 1.75118 6.57681C1.78925 6.56125 1.82388 6.53834 1.85308 6.50938L4.94683 3.41563C4.97597 3.38649 4.99908 3.3519 5.01485 3.31383C5.03062 3.27576 5.03874 3.23496 5.03874 3.19375C5.03874 3.15255 5.03062 3.11174 5.01485 3.07368C4.99908 3.03561 4.97597 3.00102 4.94683 2.97188C4.91769 2.94274 4.8831 2.91963 4.84503 2.90386C4.80697 2.88809 4.76616 2.87997 4.72496 2.87997C4.68375 2.87997 4.64295 2.88809 4.60488 2.90386C4.56681 2.91963 4.53222 2.94274 4.50308 2.97188L1.40933 6.06563C1.38004 6.09468 1.35679 6.12924 1.34093 6.16732C1.32506 6.2054 1.31689 6.24625 1.31689 6.2875C1.31689 6.32876 1.32506 6.3696 1.34093 6.40768C1.35679 6.44576 1.38004 6.48033 1.40933 6.50938C1.43853 6.53834 1.47316 6.56125 1.51124 6.57681C1.54931 6.59236 1.59008 6.60024 1.63121 6.6Z" fill="currentColor"></path>
    <path d="M3.84048 5.84688C3.78193 5.78868 3.70273 5.75601 3.62017 5.75601C3.53761 5.75601 3.45841 5.78868 3.39986 5.84688L2.29361 6.95001C2.26432 6.97906 2.24107 7.01362 2.22521 7.0517C2.20934 7.08979 2.20117 7.13063 2.20117 7.17189C2.20117 7.21314 2.20934 7.25398 2.22521 7.29206C2.24107 7.33015 2.26432 7.36471 2.29361 7.39376C2.32266 7.42305 2.35722 7.4463 2.3953 7.46216C2.43338 7.47803 2.47423 7.4862 2.51548 7.4862C2.55674 7.4862 2.59758 7.47803 2.63566 7.46216C2.67375 7.4463 2.70831 7.42305 2.73736 7.39376L3.84048 6.28751C3.89869 6.22896 3.93136 6.14976 3.93136 6.0672C3.93136 5.98464 3.89869 5.90544 3.84048 5.84688Z" fill="currentColor"></path>
    <path d="M4.28423 5.40312C4.34278 5.46133 4.42199 5.49399 4.50454 5.49399C4.5871 5.49399 4.66631 5.46133 4.72486 5.40312L5.83111 4.3C5.86024 4.27086 5.88336 4.23627 5.89913 4.1982C5.91489 4.16013 5.92301 4.11933 5.92301 4.07812C5.92301 4.03692 5.91489 3.99611 5.89913 3.95804C5.88336 3.91997 5.86024 3.88538 5.83111 3.85625C5.80197 3.82711 5.76738 3.804 5.72931 3.78823C5.69124 3.77246 5.65044 3.76434 5.60923 3.76434C5.56803 3.76434 5.52722 3.77246 5.48915 3.78823C5.45108 3.804 5.41649 3.82711 5.38736 3.85625L4.28423 4.9625C4.22603 5.02105 4.19336 5.10025 4.19336 5.18281C4.19336 5.26537 4.22603 5.34457 4.28423 5.40312Z" fill="currentColor"></path>
    <path d="M3.17813 8.27812C3.20733 8.30708 3.24196 8.32999 3.28003 8.34554C3.31811 8.3611 3.35888 8.36898 3.40001 8.36874C3.44113 8.36898 3.4819 8.3611 3.51998 8.34554C3.55805 8.32999 3.59268 8.30708 3.62188 8.27812L6.71563 5.18437C6.74477 5.15523 6.76788 5.12064 6.78365 5.08257C6.79942 5.0445 6.80753 5.0037 6.80753 4.96249C6.80753 4.92128 6.79942 4.88048 6.78365 4.84241C6.76788 4.80434 6.74477 4.76975 6.71563 4.74062C6.68649 4.71148 6.6519 4.68837 6.61383 4.6726C6.57576 4.65683 6.53496 4.64871 6.49376 4.64871C6.45255 4.64871 6.41175 4.65683 6.37368 4.6726C6.33561 4.68837 6.30102 4.71148 6.27188 4.74062L3.17813 7.83437C3.14884 7.86342 3.12559 7.89798 3.10973 7.93606C3.09386 7.97414 3.08569 8.01499 3.08569 8.05624C3.08569 8.09749 3.09386 8.13834 3.10973 8.17642C3.12559 8.2145 3.14884 8.24906 3.17813 8.27812Z" fill="currentColor"></path>
    <path d="M1.85304 13.4906C1.8239 13.4615 1.78931 13.4384 1.75124 13.4226C1.71317 13.4068 1.67237 13.3987 1.63116 13.3987C1.58996 13.3987 1.54915 13.4068 1.51108 13.4226C1.47301 13.4384 1.43842 13.4615 1.40929 13.4906C1.38015 13.5198 1.35704 13.5543 1.34127 13.5924C1.3255 13.6305 1.31738 13.6713 1.31738 13.7125C1.31738 13.7537 1.3255 13.7945 1.34127 13.8326C1.35704 13.8706 1.38015 13.9052 1.40929 13.9344L4.50304 17.0281C4.53224 17.0571 4.56687 17.08 4.60494 17.0955C4.64301 17.1111 4.68378 17.119 4.72491 17.1187C4.76604 17.119 4.80681 17.1111 4.84488 17.0955C4.88296 17.08 4.91759 17.0571 4.94679 17.0281C4.97608 16.9991 4.99932 16.9645 5.01519 16.9264C5.03106 16.8883 5.03922 16.8475 5.03922 16.8062C5.03922 16.765 5.03106 16.7241 5.01519 16.6861C4.99932 16.648 4.97608 16.6134 4.94679 16.5844L1.85304 13.4906Z" fill="currentColor"></path>
    <path d="M2.73756 12.6062C2.67871 12.5474 2.5989 12.5143 2.51568 12.5143C2.43246 12.5143 2.35265 12.5474 2.29381 12.6062C2.23496 12.6651 2.2019 12.7449 2.2019 12.8281C2.2019 12.9113 2.23496 12.9912 2.29381 13.05L5.38756 16.1437C5.41661 16.173 5.45117 16.1963 5.48925 16.2121C5.52733 16.228 5.56818 16.2362 5.60943 16.2362C5.65069 16.2362 5.69153 16.228 5.72961 16.2121C5.76769 16.1963 5.80226 16.173 5.83131 16.1437C5.8606 16.1147 5.88385 16.0801 5.89971 16.0421C5.91558 16.004 5.92375 15.9631 5.92375 15.9219C5.92375 15.8806 5.91558 15.8398 5.89971 15.8017C5.88385 15.7636 5.8606 15.729 5.83131 15.7L2.73756 12.6062Z" fill="currentColor"></path>
    <path d="M3.62184 11.7219C3.56299 11.663 3.48318 11.63 3.39996 11.63C3.31674 11.63 3.23693 11.663 3.17809 11.7219C3.11924 11.7807 3.08618 11.8605 3.08618 11.9438C3.08618 12.027 3.11924 12.1068 3.17809 12.1656L6.27184 15.2594C6.30104 15.2883 6.33567 15.3113 6.37374 15.3268C6.41181 15.3424 6.45258 15.3502 6.49371 15.35C6.53484 15.3502 6.57561 15.3424 6.61368 15.3268C6.65176 15.3113 6.68639 15.2883 6.71559 15.2594C6.74488 15.2303 6.76812 15.1958 6.78399 15.1577C6.79985 15.1196 6.80802 15.0788 6.80802 15.0375C6.80802 14.9962 6.79985 14.9554 6.78399 14.9173C6.76812 14.8792 6.74488 14.8447 6.71559 14.8156L3.62184 11.7219Z" fill="currentColor"></path>
    <path d="M18.1469 13.4906L17.0438 14.5969C16.9856 14.6554 16.9529 14.7346 16.9529 14.8172C16.9529 14.8997 16.9856 14.9789 17.0438 15.0375C17.102 15.0952 17.1805 15.1278 17.2625 15.1281C17.3036 15.1284 17.3444 15.1205 17.3825 15.1049C17.4205 15.0894 17.4552 15.0665 17.4844 15.0375L18.5906 13.9344C18.6495 13.8755 18.6825 13.7957 18.6825 13.7125C18.6825 13.6293 18.6495 13.5495 18.5906 13.4906C18.5318 13.4318 18.452 13.3987 18.3688 13.3987C18.2855 13.3987 18.2057 13.4318 18.1469 13.4906Z" fill="currentColor"></path>
    <path d="M16.378 14.2469C16.4193 14.2467 16.4602 14.2383 16.4983 14.2222C16.5364 14.2061 16.5709 14.1826 16.5999 14.1531L17.7061 13.05C17.765 12.9912 17.798 12.9113 17.798 12.8281C17.798 12.7449 17.765 12.6651 17.7061 12.6062C17.6473 12.5474 17.5675 12.5143 17.4842 12.5143C17.401 12.5143 17.3212 12.5474 17.2624 12.6062L16.1592 13.7125C16.101 13.771 16.0684 13.8503 16.0684 13.9328C16.0684 14.0154 16.101 14.0946 16.1592 14.1531C16.2169 14.212 16.2956 14.2457 16.378 14.2469Z" fill="currentColor"></path>
    <path d="M15.275 13.2688C15.3335 13.327 15.4127 13.3596 15.4953 13.3596C15.5778 13.3596 15.657 13.327 15.7156 13.2688L16.8218 12.1656C16.8807 12.1068 16.9137 12.027 16.9137 11.9438C16.9137 11.8605 16.8807 11.7807 16.8218 11.7219C16.763 11.663 16.6832 11.63 16.6 11.63C16.5167 11.63 16.4369 11.663 16.3781 11.7219L15.275 12.8281C15.2168 12.8867 15.1841 12.9659 15.1841 13.0484C15.1841 13.131 15.2168 13.2102 15.275 13.2688Z" fill="currentColor"></path>
    <path d="M16.1594 15.4812L15.0531 16.5844C15.0238 16.6134 15.0006 16.648 14.9847 16.6861C14.9689 16.7241 14.9607 16.765 14.9607 16.8062C14.9607 16.8475 14.9689 16.8883 14.9847 16.9264C15.0006 16.9645 15.0238 16.9991 15.0531 17.0281C15.0823 17.0571 15.117 17.08 15.155 17.0955C15.1931 17.1111 15.2339 17.119 15.275 17.1187C15.3161 17.119 15.3569 17.1111 15.395 17.0955C15.4331 17.08 15.4677 17.0571 15.4969 17.0281L16.6 15.9375C16.6512 15.8777 16.678 15.8008 16.6749 15.7222C16.6719 15.6435 16.6393 15.5689 16.5836 15.5133C16.528 15.4576 16.4534 15.425 16.3747 15.422C16.2961 15.4189 16.2192 15.4457 16.1594 15.4969V15.4812Z" fill="currentColor"></path>
    <path d="M15.7155 14.5969C15.6569 14.5387 15.5777 14.506 15.4952 14.506C15.4126 14.506 15.3334 14.5387 15.2749 14.5969L14.1686 15.7C14.1393 15.7291 14.1161 15.7636 14.1002 15.8017C14.0843 15.8398 14.0762 15.8806 14.0762 15.9219C14.0762 15.9631 14.0843 16.004 14.1002 16.0421C14.1161 16.0801 14.1393 16.1147 14.1686 16.1438C14.1977 16.173 14.2322 16.1963 14.2703 16.2122C14.3084 16.228 14.3492 16.2362 14.3905 16.2362C14.4317 16.2362 14.4726 16.228 14.5107 16.2122C14.5487 16.1963 14.5833 16.173 14.6124 16.1438L15.7155 15.0375C15.7737 14.979 15.8064 14.8998 15.8064 14.8172C15.8064 14.7346 15.7737 14.6554 15.7155 14.5969Z" fill="currentColor"></path>
    <path d="M14.8312 13.7125C14.7727 13.6543 14.6935 13.6216 14.6109 13.6216C14.5283 13.6216 14.4491 13.6543 14.3906 13.7125L13.2843 14.8156C13.255 14.8447 13.2318 14.8793 13.2159 14.9173C13.2001 14.9554 13.1919 14.9963 13.1919 15.0375C13.1919 15.0788 13.2001 15.1196 13.2159 15.1577C13.2318 15.1958 13.255 15.2303 13.2843 15.2594C13.3135 15.2884 13.3482 15.3113 13.3862 15.3268C13.4243 15.3424 13.4651 15.3503 13.5062 15.35C13.5473 15.3503 13.5881 15.3424 13.6262 15.3268C13.6643 15.3113 13.6989 15.2884 13.7281 15.2594L14.8312 14.1531C14.8894 14.0946 14.9221 14.0154 14.9221 13.9328C14.9221 13.8503 14.8894 13.7711 14.8312 13.7125Z" fill="currentColor"></path>
    <path d="M18.1468 6.50938C18.176 6.53834 18.2106 6.56125 18.2487 6.57681C18.2868 6.59236 18.3275 6.60024 18.3686 6.6C18.4098 6.60024 18.4505 6.59236 18.4886 6.57681C18.5267 6.56125 18.5613 6.53834 18.5905 6.50938C18.6198 6.48033 18.6431 6.44576 18.6589 6.40768C18.6748 6.3696 18.683 6.32876 18.683 6.2875C18.683 6.24625 18.6748 6.2054 18.6589 6.16732C18.6431 6.12924 18.6198 6.09468 18.5905 6.06563L17.4999 4.9625C17.4401 4.91131 17.3632 4.88455 17.2846 4.88759C17.2059 4.89063 17.1313 4.92323 17.0757 4.97889C17.02 5.03454 16.9874 5.10915 16.9844 5.1878C16.9813 5.26645 17.0081 5.34335 17.0593 5.40313L18.1468 6.50938Z" fill="currentColor"></path>
    <path d="M16.3782 8.27813C16.4074 8.3071 16.442 8.33001 16.4801 8.34556C16.5182 8.36111 16.5589 8.369 16.6001 8.36876C16.6412 8.369 16.6819 8.36111 16.72 8.34556C16.7581 8.33001 16.7927 8.3071 16.8219 8.27813C16.8512 8.24908 16.8745 8.21452 16.8903 8.17644C16.9062 8.13836 16.9144 8.09751 16.9144 8.05626C16.9144 8.01501 16.9062 7.97416 16.8903 7.93608C16.8745 7.898 16.8512 7.86343 16.8219 7.83438L15.7157 6.73126C15.6857 6.70233 15.6504 6.67958 15.6116 6.66431C15.5729 6.64905 15.5315 6.64157 15.4898 6.64229C15.4057 6.64376 15.3257 6.67857 15.2672 6.73907C15.2088 6.79957 15.1768 6.88081 15.1783 6.96491C15.1797 7.04901 15.2145 7.12908 15.2751 7.18751L16.3782 8.27813Z" fill="currentColor"></path>
    <path d="M16.1593 4.51875C16.2179 4.57696 16.2971 4.60963 16.3796 4.60963C16.4622 4.60963 16.5414 4.57696 16.6 4.51875C16.6582 4.4602 16.6908 4.381 16.6908 4.29844C16.6908 4.21588 16.6582 4.13668 16.6 4.07813L15.4968 2.97188C15.438 2.91303 15.3582 2.87997 15.275 2.87997C15.1917 2.87997 15.1119 2.91303 15.0531 2.97188C14.9942 3.03072 14.9612 3.11053 14.9612 3.19375C14.9612 3.27697 14.9942 3.35678 15.0531 3.41563L16.1593 4.51875Z" fill="currentColor"></path>
    <path d="M17.2626 7.39375C17.2916 7.42304 17.3262 7.44629 17.3643 7.46215C17.4023 7.47802 17.4432 7.48618 17.4844 7.48618C17.5257 7.48618 17.5665 7.47802 17.6046 7.46215C17.6427 7.44629 17.6773 7.42304 17.7063 7.39375C17.7356 7.3647 17.7588 7.33013 17.7747 7.29205C17.7906 7.25397 17.7987 7.21313 17.7987 7.17187C17.7987 7.13062 17.7906 7.08977 17.7747 7.05169C17.7588 7.01361 17.7356 6.97905 17.7063 6.95L14.6126 3.85625C14.5537 3.7974 14.4739 3.76434 14.3907 3.76434C14.3075 3.76434 14.2277 3.7974 14.1688 3.85625C14.11 3.91509 14.0769 3.9949 14.0769 4.07812C14.0769 4.16134 14.11 4.24115 14.1688 4.3L17.2626 7.39375Z" fill="currentColor"></path>
    <path d="M14.3905 6.28749C14.4197 6.31645 14.4544 6.33937 14.4924 6.35492C14.5305 6.37047 14.5713 6.37835 14.6124 6.37812C14.6944 6.37777 14.773 6.34522 14.8312 6.28749C14.8894 6.22894 14.922 6.14974 14.922 6.06718C14.922 5.98462 14.8894 5.90542 14.8312 5.84687L13.728 4.74062C13.6989 4.71148 13.6643 4.68837 13.6262 4.6726C13.5882 4.65683 13.5474 4.64871 13.5062 4.64871C13.465 4.64871 13.4242 4.65683 13.3861 4.6726C13.348 4.68837 13.3134 4.71148 13.2843 4.74062C13.2551 4.76975 13.232 4.80434 13.2163 4.84241C13.2005 4.88048 13.1924 4.92128 13.1924 4.96249C13.1924 5.0037 13.2005 5.0445 13.2163 5.08257C13.232 5.12064 13.2551 5.15523 13.2843 5.18437L14.3905 6.28749Z" fill="currentColor"></path>
    <path d="M5.9375 10C5.93738 9.11904 6.22363 8.26191 6.75311 7.55781C7.28259 6.85371 8.0266 6.3408 8.873 6.09641C9.71939 5.85201 10.6223 5.88937 11.4456 6.20285C12.2689 6.51634 12.968 7.08895 13.4375 7.83439C13.0582 7.61321 12.6266 7.49775 12.1875 7.50001C11.5245 7.50001 10.8886 7.7634 10.4197 8.23225C9.95089 8.70109 9.6875 9.33697 9.6875 10C9.71319 10.4973 9.54029 10.9844 9.20683 11.3542C8.87336 11.724 8.40666 11.9462 7.90937 11.9719C7.41209 11.9976 6.92497 11.8247 6.55518 11.4912C6.18538 11.1578 5.96319 10.691 5.9375 10.1938" fill="currentColor"></path>
    <path d="M14.0625 10C14.0674 10.8828 13.7846 11.7433 13.2568 12.451C12.7291 13.1588 11.9851 13.6753 11.1376 13.9225C10.29 14.1697 9.38501 14.1341 8.55952 13.8211C7.73403 13.508 7.03299 12.9345 6.5625 12.1875C6.9442 12.4079 7.37738 12.5235 7.81814 12.5225C8.2589 12.5215 8.69156 12.404 9.07228 12.1819C9.453 11.9599 9.76823 11.6411 9.98604 11.2579C10.2038 10.8747 10.3165 10.4407 10.3125 10C10.3125 9.50272 10.51 9.02581 10.8617 8.67417C11.2133 8.32254 11.6902 8.125 12.1875 8.125C12.6848 8.125 13.1617 8.32254 13.5133 8.67417C13.865 9.02581 14.0625 9.50272 14.0625 10Z" fill="currentColor"></path>
  </symbol>
   <symbol id="crown 1" viewBox="0 0 15 15" fill="none">
    <path d="M14.0938 6.98749L12.9406 12.0828C12.9178 12.1894 12.8585 12.2847 12.7729 12.3523C12.6873 12.4199 12.5809 12.4555 12.4719 12.4531H3.49065C3.38164 12.4555 3.2752 12.4199 3.18964 12.3523C3.10408 12.2847 3.04477 12.1894 3.0219 12.0828L1.90627 6.98749C1.8875 6.9014 1.89337 6.81175 1.92322 6.72884C1.95306 6.64593 2.00568 6.57311 2.07502 6.51874C2.14456 6.46418 2.2281 6.43038 2.31602 6.42126C2.40393 6.41213 2.49264 6.42805 2.5719 6.46718L5.3094 7.79374L7.57815 3.78124C7.61903 3.7091 7.67832 3.6491 7.74996 3.60735C7.8216 3.56561 7.90304 3.54361 7.98596 3.54361C8.06888 3.54361 8.15031 3.56561 8.22196 3.60735C8.2936 3.6491 8.35289 3.7091 8.39377 3.78124L10.6625 7.79843L13.4188 6.46249C13.4986 6.42018 13.5889 6.40183 13.679 6.40967C13.769 6.4175 13.8548 6.45117 13.9261 6.50664C13.9974 6.56211 14.0512 6.637 14.0809 6.72231C14.1107 6.80762 14.1151 6.89971 14.0938 6.98749Z" fill="currentColor"></path>
  </symbol>

</svg>