<svg width="20" height="20" viewBox="0 0 20 20" fill="none" xmlns="http://www.w3.org/2000/svg">
<path fill-rule="evenodd" clip-rule="evenodd" d="M1.02412 10.4866C1.06677 11.1428 1.13853 11.6618 1.31939 12.3312C1.36845 12.5128 1.52751 12.6346 1.71564 12.6346H4.23724C4.48201 12.6346 4.67076 12.4253 4.64548 12.1818C4.49662 10.7475 4.48064 9.25573 4.59923 7.80886C4.61892 7.56843 4.43142 7.36491 4.19017 7.36491H1.71568C1.52759 7.36491 1.36849 7.48675 1.31943 7.66835C1.1974 8.1203 1.10931 8.58608 1.06033 9.06272C1.01626 9.49042 1.01134 9.76811 1.01365 10.1904L1.02412 10.4866ZM4.86908 5.71319C5.03497 4.78343 5.25759 3.89343 5.53197 3.06237C5.65462 2.69081 5.23115 2.37366 4.90912 2.59589C3.8349 3.33706 2.92872 4.30581 2.26169 5.4319C2.09915 5.70628 2.29595 6.05155 2.61486 6.05155H4.46501C4.66568 6.05155 4.83384 5.91073 4.86908 5.71319ZM13.7683 5.56132C13.4641 4.026 12.9935 2.62702 12.3801 1.46944C12.3231 1.3619 12.2323 1.29139 12.114 1.26272C10.7283 0.927019 9.27158 0.927292 7.88681 1.26272C7.76849 1.29139 7.67779 1.36186 7.62076 1.46944C7.00732 2.62706 6.53677 4.026 6.23251 5.56132C6.18197 5.81639 6.37509 6.05155 6.63513 6.05155H13.3657C13.6258 6.05155 13.8189 5.81639 13.7683 5.56132ZM15.5358 6.05155H17.386C17.7049 6.05155 17.9017 5.70632 17.7392 5.43194C17.0721 4.30565 16.1659 3.33663 15.0916 2.59561C14.7695 2.37346 14.3461 2.69061 14.4688 3.06214C14.7431 3.89327 14.9658 4.78335 15.1317 5.71323C15.167 5.91073 15.3352 6.05155 15.5358 6.05155ZM15.7636 12.6347H18.2852C18.4733 12.6347 18.6324 12.5129 18.6815 12.3313C18.8035 11.8796 18.8916 11.4137 18.9406 10.9369C18.9883 10.4696 18.9872 10.2557 18.9872 9.79116C18.9872 9.60503 18.957 9.22303 18.9405 9.06272C18.8915 8.58608 18.8034 8.1203 18.6814 7.66835C18.6324 7.48675 18.4733 7.36491 18.2852 7.36491H15.8107C15.5695 7.36491 15.382 7.56843 15.4017 7.80886C15.5202 9.25577 15.5043 10.7474 15.3554 12.1818C15.3301 12.4253 15.5189 12.6347 15.7636 12.6347ZM15.0364 14.2759C14.8401 15.2324 14.5722 16.1894 14.2315 17.0819C14.0905 17.451 14.5037 17.7871 14.8363 17.5739C16.0228 16.8136 17.0193 15.7821 17.7389 14.5677C17.9015 14.2933 17.7047 13.948 17.3858 13.948H15.4385C15.2415 13.948 15.076 14.083 15.0364 14.2759ZM5.76931 17.0817C5.42853 16.1891 5.16079 15.2324 4.96447 14.276C4.92486 14.083 4.75935 13.948 4.56244 13.948H2.61509C2.29615 13.948 2.09939 14.2933 2.26197 14.5677C2.98154 15.782 3.97806 16.8133 5.16443 17.5737C5.49708 17.7869 5.91029 17.4508 5.76931 17.0817ZM13.2511 13.948H6.74974C6.48482 13.948 6.29056 14.1917 6.34962 14.45C6.7188 16.0639 7.27462 17.5039 7.98244 18.6326C8.04474 18.732 8.13533 18.7944 8.2504 18.8172C9.40572 19.046 10.5942 19.0462 11.7504 18.8172C11.8655 18.7944 11.9561 18.732 12.0184 18.6326C12.7262 17.5039 13.2821 16.0641 13.6513 14.45C13.7103 14.1917 13.5161 13.948 13.2511 13.948ZM5.83427 9.73659C5.83427 10.5978 5.88497 11.4474 5.98001 12.2713C6.00404 12.4794 6.17822 12.6347 6.38775 12.6347H13.6131C13.8227 12.6347 13.9968 12.4794 14.0209 12.2713C14.1935 10.7752 14.2133 9.24596 14.0772 7.73846C14.0581 7.52624 13.8816 7.36495 13.6685 7.36495H6.3324C6.11927 7.36495 5.94279 7.52624 5.92361 7.73846C5.86454 8.39292 5.83427 9.06124 5.83427 9.73659Z" fill="#FAFF00"/>
</svg>
